<svg xmlns="http://www.w3.org/2000/svg" viewBox="0 0 2058.27 2114.54"><g style="isolation:isolate"><g id="Layer_1" data-name="Layer 1"><rect y="134.01" width="1388.36" height="1844.11" style="fill:#5e97fe"/><g style="opacity:0.1"><rect y="134.01" width="1388.36" height="1844.11" style="fill:#5e97fe"/></g><rect x="37.74" y="134.01" width="1388.36" height="1844.11" style="fill:#5e97fe"/><rect x="-2982.13" y="1132.13" width="1225.63" height="1661.43" transform="translate(3076.07 -946.76) rotate(-0.73)" style="fill:#ececec"/><rect x="-3218.9" y="1350.03" width="1661.43" height="1225.63" transform="translate(-1197.82 -1383.89) rotate(-88.76)" style="fill:#dcdcdc"/><rect x="100.23" y="215.37" width="1225.63" height="1661.43" style="fill:#fff"/><rect x="240.18" y="1172.38" width="104.07" height="104.07" style="fill:#ececec"/><rect x="400.44" y="1172.38" width="337.18" height="15.25" style="fill:#375a64"/><rect x="400.44" y="1201.99" width="785.48" height="15.25" style="fill:#ececec"/><rect x="400.44" y="1231.59" width="785.48" height="15.25" style="fill:#ececec"/><rect x="400.44" y="1261.2" width="785.48" height="15.25" style="fill:#ececec"/><path d="M-2853.39,2135.79c3.84,3.2,7.5,6.54,11.12,9.91s7.1,6.85,10.66,10.27c7,6.93,13.77,14.06,20.42,21.27l-11.94.76a472.69,472.69,0,0,1,32.41-56.84c6-9.09,12.41-18,19.24-26.58a244.91,244.91,0,0,1,22.21-24.79,247.51,247.51,0,0,1-11.6,31.2c-4.45,10.05-9.34,19.83-14.57,29.4a471.84,471.84,0,0,1-35.22,55.14l-6.53,8.74-5.41-8c-5.51-8.11-10.91-16.31-16.08-24.71-2.52-4.24-5.15-8.4-7.58-12.72S-2851.14,2140.25-2853.39,2135.79Z" transform="translate(3101.24 -916.77)" style="fill:#5e97fe"/><rect x="240.18" y="1344.58" width="104.07" height="104.07" style="fill:#ececec"/><rect x="400.44" y="1344.58" width="337.18" height="15.25" style="fill:#375a64"/><rect x="400.44" y="1374.18" width="785.48" height="15.25" style="fill:#ececec"/><rect x="400.44" y="1403.79" width="785.48" height="15.25" style="fill:#ececec"/><rect x="400.44" y="1433.39" width="785.48" height="15.25" style="fill:#ececec"/><rect x="240.18" y="1516.77" width="104.07" height="104.07" style="fill:#ececec"/><rect x="400.44" y="1516.77" width="337.18" height="15.25" style="fill:#375a64"/><rect x="400.44" y="1546.38" width="785.48" height="15.25" style="fill:#ececec"/><rect x="400.44" y="1575.98" width="785.48" height="15.25" style="fill:#ececec"/><rect x="400.44" y="1605.59" width="785.48" height="15.25" style="fill:#ececec"/><rect x="659.6" y="1721.62" width="526.32" height="15.25" style="fill:#ececec"/><rect x="566.3" y="632.6" width="285.35" height="15.25" style="fill:#375a64"/><rect x="566.3" y="662.21" width="619.62" height="15.25" style="fill:#ececec"/><rect x="566.3" y="691.81" width="619.62" height="15.25" style="fill:#ececec"/><rect x="566.3" y="751.02" width="619.62" height="15.25" style="fill:#ececec"/><rect x="566.3" y="780.63" width="269.45" height="15.25" style="fill:#ececec"/><rect x="240.18" y="374.35" width="945.74" height="144.87" style="fill:#5e97fe"/><path d="M-2795.89,1408.42v-84.64h16.45v84.64Z" transform="translate(3101.24 -916.77)" style="fill:#fff"/><path d="M-2727.46,1354.18v54.24h-16.45v-84.64h12.75l44.11,55.55v-55.44h16.45v84.53h-13.35Z" transform="translate(3101.24 -916.77)" style="fill:#fff"/><path d="M-2584.65,1346a20.68,20.68,0,0,0-3-2.27,37.79,37.79,0,0,0-5.37-2.8,47,47,0,0,0-6.85-2.32,29.75,29.75,0,0,0-7.51-1q-6.79,0-10.13,2.51a8.27,8.27,0,0,0-3.34,7,7.25,7.25,0,0,0,1.25,4.35,10.87,10.87,0,0,0,3.64,3,30.12,30.12,0,0,0,6,2.39c2.42.71,5.22,1.47,8.4,2.26q6.2,1.66,11.27,3.58a30.59,30.59,0,0,1,8.58,4.77,19.65,19.65,0,0,1,5.42,6.85,22.74,22.74,0,0,1,1.91,9.84,24.47,24.47,0,0,1-2.56,11.62,21.59,21.59,0,0,1-6.92,7.81,30.24,30.24,0,0,1-10,4.35,50.49,50.49,0,0,1-11.86,1.37,63.65,63.65,0,0,1-18.84-2.86,58.3,58.3,0,0,1-16.69-8.11l7.28-14.18a22.75,22.75,0,0,0,3.87,2.8,59.62,59.62,0,0,0,6.61,3.45,51.53,51.53,0,0,0,8.47,2.93,38.48,38.48,0,0,0,9.54,1.19q13.59,0,13.59-8.71a7.14,7.14,0,0,0-1.56-4.65,13.1,13.1,0,0,0-4.4-3.33,42.34,42.34,0,0,0-6.92-2.63l-9.06-2.62a77,77,0,0,1-10.55-3.63,27.71,27.71,0,0,1-7.45-4.65,17.4,17.4,0,0,1-4.47-6.2,21.54,21.54,0,0,1-1.49-8.41,26.29,26.29,0,0,1,2.38-11.44,23.08,23.08,0,0,1,6.62-8.34,29.86,29.86,0,0,1,9.83-5.07,40.77,40.77,0,0,1,12-1.73,46.68,46.68,0,0,1,16.45,2.8,61.31,61.31,0,0,1,13.11,6.62Z" transform="translate(3101.24 -916.77)" style="fill:#fff"/><path d="M-2508.36,1394.47a18.9,18.9,0,0,0,9.84-2.39,19.08,19.08,0,0,0,6.43-6.2,25.43,25.43,0,0,0,3.46-8.76,50.31,50.31,0,0,0,1-10.19v-43.15h16.34v43.15a61.69,61.69,0,0,1-2.09,16.33,37.54,37.54,0,0,1-6.55,13.35,31.32,31.32,0,0,1-11.51,9.06,38.83,38.83,0,0,1-16.81,3.34q-10.12,0-17.22-3.51a32.26,32.26,0,0,1-11.51-9.3,37.35,37.35,0,0,1-6.38-13.41,63.4,63.4,0,0,1-2-15.86v-43.15h16.45v43.15a51.58,51.58,0,0,0,1,10.31,25.63,25.63,0,0,0,3.46,8.76,18.84,18.84,0,0,0,6.38,6.14A18.66,18.66,0,0,0-2508.36,1394.47Z" transform="translate(3101.24 -916.77)" style="fill:#fff"/><path d="M-2436.83,1408.42v-84.64h37.43a24,24,0,0,1,10.79,2.44,27.92,27.92,0,0,1,8.53,6.44,30.37,30.37,0,0,1,5.6,9.06,27.22,27.22,0,0,1,2,10.19,28.08,28.08,0,0,1-4.12,15,23.56,23.56,0,0,1-11.14,9.72l19.31,31.83h-18.48l-17.29-28.38h-16.21v28.38Zm16.45-42.8h20.63a8.74,8.74,0,0,0,4.23-1.07,11,11,0,0,0,3.4-2.92,14.86,14.86,0,0,0,2.26-4.36,16.68,16.68,0,0,0,.83-5.36,15.13,15.13,0,0,0-.95-5.48,14.41,14.41,0,0,0-2.56-4.35,11.67,11.67,0,0,0-3.7-2.87,9.66,9.66,0,0,0-4.23-1h-19.91Z" transform="translate(3101.24 -916.77)" style="fill:#fff"/><path d="M-2316.9,1323.78h14.55l32.18,84.64h-16.93l-7.86-21.1h-29.57l-7.75,21.1h-16.92Zm19,52-11.69-33.26-12.15,33.26Z" transform="translate(3101.24 -916.77)" style="fill:#fff"/><path d="M-2226.53,1354.18v54.24H-2243v-84.64h12.76l44.11,55.55v-55.44h16.45v84.53H-2183Z" transform="translate(3101.24 -916.77)" style="fill:#fff"/><path d="M-2139.28,1365.5a43.61,43.61,0,0,1,2.81-15.32,41.57,41.57,0,0,1,8.16-13.53,41.42,41.42,0,0,1,13.12-9.66,40.51,40.51,0,0,1,17.64-3.69q11.68,0,20.2,5.12a32.69,32.69,0,0,1,12.7,13.36l-12.64,8.7a21.46,21.46,0,0,0-4.05-6,20.56,20.56,0,0,0-5.12-3.88,23,23,0,0,0-5.73-2.08,27,27,0,0,0-5.84-.66,22.2,22.2,0,0,0-10.79,2.51,23.67,23.67,0,0,0-7.63,6.49,28.65,28.65,0,0,0-4.58,9.06,34.13,34.13,0,0,0-1.56,10.08,33,33,0,0,0,1.79,10.79,28.59,28.59,0,0,0,5.07,9.11,25.08,25.08,0,0,0,7.87,6.32,21.46,21.46,0,0,0,10.07,2.39,26.33,26.33,0,0,0,6-.72,22.36,22.36,0,0,0,5.9-2.26,22.26,22.26,0,0,0,5.19-4,18.46,18.46,0,0,0,3.81-5.9l13.47,7.75a25.26,25.26,0,0,1-5.78,8.4,36.64,36.64,0,0,1-8.46,6.14,43.27,43.27,0,0,1-10.07,3.82,44.39,44.39,0,0,1-10.5,1.31,36.1,36.1,0,0,1-16.57-3.81,43,43,0,0,1-12.93-10,45.89,45.89,0,0,1-8.46-13.95A43.44,43.44,0,0,1-2139.28,1365.5Z" transform="translate(3101.24 -916.77)" style="fill:#fff"/><path d="M-1975.72,1394v14.43h-58.77v-84.64h57.7v14.42H-2018v20.39h35.64v13.35H-2018v22Z" transform="translate(3101.24 -916.77)" style="fill:#fff"/><path d="M-1912.72,2013.37h-950.93V1810h950.93Zm-945.75-5.19h940.56v-193h-940.56Z" transform="translate(3101.24 -916.77)" style="fill:#ececec"/><rect x="240.18" y="1013.06" width="945.74" height="5.18" style="fill:#ececec"/><rect x="240.18" y="934.89" width="945.74" height="5.18" style="fill:#ececec"/><rect x="546.29" y="895.77" width="5.18" height="198.24" style="fill:#ececec"/><rect x="874.63" y="895.77" width="5.18" height="198.24" style="fill:#ececec"/><path d="M-2807.06,1833.77c16.73-1.07,33.45-1.57,50.18-2s33.45-.54,50.17-.61,33.45.13,50.17.6l25.09.72c8.36.43,16.72.68,25.09,1.27-8.37.59-16.73.84-25.09,1.27l-25.09.73c-16.72.47-33.45.53-50.17.59s-33.45-.13-50.17-.6S-2790.33,1834.84-2807.06,1833.77Z" transform="translate(3101.24 -916.77)" style="fill:#375a64"/><path d="M-2488.54,1833.77c16.73-1.07,33.45-1.57,50.18-2s33.45-.54,50.17-.61,33.45.13,50.18.6l25.08.72c8.36.43,16.73.68,25.09,1.27-8.36.59-16.73.84-25.09,1.27l-25.08.73c-16.73.47-33.45.53-50.18.59s-33.45-.13-50.17-.6S-2471.81,1834.84-2488.54,1833.77Z" transform="translate(3101.24 -916.77)" style="fill:#375a64"/><path d="M-2168,1833.77c16.73-1.07,33.45-1.57,50.18-2s33.45-.54,50.17-.61,33.45.13,50.18.6l25.08.72c8.36.43,16.73.68,25.09,1.27-8.36.59-16.73.84-25.09,1.27l-25.08.73c-16.73.47-33.45.53-50.18.59s-33.45-.13-50.17-.6S-2151.32,1834.84-2168,1833.77Z" transform="translate(3101.24 -916.77)" style="fill:#375a64"/><path d="M-2807.06,1883.78c16.73-1.07,33.45-1.57,50.18-2s33.45-.54,50.17-.61,33.45.13,50.17.6l25.09.72c8.36.43,16.72.69,25.09,1.27-8.37.59-16.73.84-25.09,1.27l-25.09.73c-16.72.47-33.45.54-50.17.59s-33.45-.13-50.17-.6S-2790.33,1884.85-2807.06,1883.78Z" transform="translate(3101.24 -916.77)" style="fill:#ececec"/><path d="M-2488.54,1883.78c16.73-1.07,33.45-1.57,50.18-2s33.45-.54,50.17-.61,33.45.13,50.18.6l25.08.72c8.36.43,16.73.69,25.09,1.27-8.36.59-16.73.84-25.09,1.27l-25.08.73c-16.73.47-33.45.54-50.18.59s-33.45-.13-50.17-.6S-2471.81,1884.85-2488.54,1883.78Z" transform="translate(3101.24 -916.77)" style="fill:#ececec"/><path d="M-2168,1883.78c16.73-1.07,33.45-1.57,50.18-2s33.45-.54,50.17-.61,33.45.13,50.18.6l25.08.72c8.36.43,16.73.69,25.09,1.27-8.36.59-16.73.84-25.09,1.27l-25.08.73c-16.73.47-33.45.54-50.18.59s-33.45-.13-50.17-.6S-2151.32,1884.85-2168,1883.78Z" transform="translate(3101.24 -916.77)" style="fill:#ececec"/><path d="M-2807.06,1903.89c16.73-1.07,33.45-1.57,50.18-2s33.45-.54,50.17-.61,33.45.13,50.17.6l25.09.72c8.36.43,16.72.68,25.09,1.27-8.37.59-16.73.84-25.09,1.27l-25.09.72c-16.72.47-33.45.54-50.17.6s-33.45-.13-50.17-.61S-2790.33,1905-2807.06,1903.89Z" transform="translate(3101.24 -916.77)" style="fill:#ececec"/><path d="M-2488.54,1903.89c16.73-1.07,33.45-1.57,50.18-2s33.45-.54,50.17-.61,33.45.13,50.18.6l25.08.72c8.36.43,16.73.68,25.09,1.27-8.36.59-16.73.84-25.09,1.27l-25.08.72c-16.73.47-33.45.54-50.18.6s-33.45-.13-50.17-.61S-2471.81,1905-2488.54,1903.89Z" transform="translate(3101.24 -916.77)" style="fill:#ececec"/><path d="M-2168,1903.89c16.73-1.07,33.45-1.57,50.18-2s33.45-.54,50.17-.61,33.45.13,50.18.6l25.08.72c8.36.43,16.73.68,25.09,1.27-8.36.59-16.73.84-25.09,1.27l-25.08.72c-16.73.47-33.45.54-50.18.6s-33.45-.13-50.17-.61S-2151.32,1905-2168,1903.89Z" transform="translate(3101.24 -916.77)" style="fill:#ececec"/><path d="M-2807.06,1957.59c16.73-1.07,33.45-1.57,50.18-2s33.45-.54,50.17-.61,33.45.13,50.17.6l25.09.72c8.36.43,16.72.68,25.09,1.27-8.37.59-16.73.84-25.09,1.27l-25.09.72c-16.72.47-33.45.54-50.17.6s-33.45-.13-50.17-.6S-2790.33,1958.66-2807.06,1957.59Z" transform="translate(3101.24 -916.77)" style="fill:#ececec"/><path d="M-2488.54,1957.59c16.73-1.07,33.45-1.57,50.18-2s33.45-.54,50.17-.61,33.45.13,50.18.6l25.08.72c8.36.43,16.73.68,25.09,1.27-8.36.59-16.73.84-25.09,1.27l-25.08.72c-16.73.47-33.45.54-50.18.6s-33.45-.13-50.17-.6S-2471.81,1958.66-2488.54,1957.59Z" transform="translate(3101.24 -916.77)" style="fill:#ececec"/><path d="M-2168,1957.59c16.73-1.07,33.45-1.57,50.18-2s33.45-.54,50.17-.61,33.45.13,50.18.6l25.08.72c8.36.43,16.73.68,25.09,1.27-8.36.59-16.73.84-25.09,1.27l-25.08.72c-16.73.47-33.45.54-50.18.6s-33.45-.13-50.17-.6S-2151.32,1958.66-2168,1957.59Z" transform="translate(3101.24 -916.77)" style="fill:#ececec"/><path d="M-2807.06,1977.7c16.73-1.07,33.45-1.57,50.18-2s33.45-.54,50.17-.6,33.45.12,50.17.59l25.09.73c8.36.43,16.72.68,25.09,1.27-8.37.59-16.73.84-25.09,1.27l-25.09.72c-16.72.47-33.45.54-50.17.6s-33.45-.13-50.17-.61S-2790.33,1978.77-2807.06,1977.7Z" transform="translate(3101.24 -916.77)" style="fill:#ececec"/><path d="M-2488.54,1977.7c16.73-1.07,33.45-1.57,50.18-2s33.45-.54,50.17-.6,33.45.12,50.18.59l25.08.73c8.36.43,16.73.68,25.09,1.27-8.36.59-16.73.84-25.09,1.27l-25.08.72c-16.73.47-33.45.54-50.18.6s-33.45-.13-50.17-.61S-2471.81,1978.77-2488.54,1977.7Z" transform="translate(3101.24 -916.77)" style="fill:#ececec"/><path d="M-2168,1977.7c16.73-1.07,33.45-1.57,50.18-2s33.45-.54,50.17-.6,33.45.12,50.18.59l25.08.73c8.36.43,16.73.68,25.09,1.27-8.36.59-16.73.84-25.09,1.27l-25.08.72c-16.73.47-33.45.54-50.18.6s-33.45-.13-50.17-.61S-2151.32,1978.77-2168,1977.7Z" transform="translate(3101.24 -916.77)" style="fill:#ececec"/><rect x="412.05" y="100.35" width="602.01" height="183.54" style="fill:#c8c8c8"/><path d="M-2204.13,916.77h-373.61l-16.55,100.34h412.23ZM-2388.2,989a22,22,0,0,1-22-22,22.05,22.05,0,0,1,22-22,22,22,0,0,1,22,22A22,22,0,0,1-2388.2,989Z" transform="translate(3101.24 -916.77)" style="fill:#c8c8c8"/><polygon points="919.18 100.34 506.94 100.34 510.64 77.88 914.21 77.88 919.18 100.34" style="fill:#a8a8a8"/><rect x="238.45" y="611.53" width="299.29" height="203.29" style="fill:#ececec"/><path d="M-1226.86,2950.67s-33.57-58.94-29.64-65.81,19.6-11.43,24.7-10.8,28.3,56.44,26.85,65.87S-1216.26,2959.62-1226.86,2950.67Z" transform="translate(3101.24 -916.77)" style="fill:#d7a28e"/><path d="M-1219.21,2986.51h-45.66s-5.26-7.93,1.16-20S-1240,2968-1240,2968a3.12,3.12,0,0,0,4.37-.8h0c1.31-1.58,2.57-4.85,3.14-11.28,1.28-14.07-13-27.3-17.37-31a2.65,2.65,0,0,1-.87-2.68.2.2,0,0,1,0-.07,2.69,2.69,0,0,1,4.44-1.35c5.28,4.86,13.61,13.76,14.27,13.52.09,0,.14-.15.18-.32.41-1.94-1.9-11.87-5.28-17.64,3-7.71,3.43-10.88,11.43-12.12,14.33-2.28,34.74,21.18,38.53,31S-1219.21,2986.51-1219.21,2986.51Z" transform="translate(3101.24 -916.77)" style="fill:#241d51"/><path d="M-1254.42,2963.77a13.65,13.65,0,0,0-6,1.65,30.4,30.4,0,0,0,1.87,2.52,11.36,11.36,0,0,1,7.3-1.63c6.93.8,7.11,1.05,7.11,1.05S-1248.6,2963.4-1254.42,2963.77Z" transform="translate(3101.24 -916.77)" style="fill:#fff;opacity:0.2"/><path d="M-1262.64,2968a1.43,1.43,0,0,0,.72,2.09,1.42,1.42,0,0,0,1.53-.38,13.81,13.81,0,0,1,1.32-1.28c-.66-.81-1.28-1.64-1.86-2.51A9.07,9.07,0,0,0-1262.64,2968Z" transform="translate(3101.24 -916.77)" style="fill:#fff;opacity:0.2"/><path d="M-1235.57,2967.23c1.31-1.58,2.57-4.85,3.14-11.28,1.28-14.07-13-27.3-17.37-31a2.65,2.65,0,0,1-.87-2.68.2.2,0,0,1,0-.07,2.69,2.69,0,0,1,4.44-1.35c5.28,4.86,13.61,13.76,14.27,13.52.09,0,.14-.15.18-.32,3.27,4.44,6.68,10.62,7.1,17.48C-1223.94,2963.39-1233.3,2966.63-1235.57,2967.23Z" transform="translate(3101.24 -916.77)" style="fill:#223760"/><path d="M-1267.36,2983.71s-2.85,4,.79,4.59,45.91,2.06,52.09.64,34.35-50.19,31.82-52.88a12.18,12.18,0,0,0-6-3.32s-21.06,49.71-30.08,50.81S-1262.45,2980.07-1267.36,2983.71Z" transform="translate(3101.24 -916.77)" style="fill:#17143a"/><path d="M-1399.15,2179.23s-105.17,297.71-123.89,353.89,272.86,381.11,272.86,381.11L-1214,2891l-142.9-363.75s185.68-250.19,113.16-323.23S-1399.15,2179.23-1399.15,2179.23Z" transform="translate(3101.24 -916.77)" style="fill:#241d51"/><path d="M-1356.92,2527.27s185.68-250.19,113.16-323.23-155.39-24.81-155.39-24.81-105.17,297.71-123.89,353.89c-6.51,19.54,24.54,71.62,67.8,131.22,1.81-4.25,3.71-8.47,5.76-12.61,6.27-12.67,13.66-25.42,24-35.29,7.49-7.17,17.45-12.75,28.08-9.93,14.27,3.78,23.47,19.8,29,32.21,10.48,23.42,11.3,50,22.62,73,6.1,12.42,15.79,22.09,24.69,32.5a347.61,347.61,0,0,1,24.49,31.47c13.33,19.76,22.24,41.71,28.87,64.52,5.22,18,9,37.79,5.17,56.43-.2.93-.49,1.84-.73,2.76,8.31,9.42,13.13,14.79,13.13,14.79L-1214,2891Z" transform="translate(3101.24 -916.77)" style="fill:#202234;mix-blend-mode:multiply;opacity:0.25"/><path d="M-1450.54,2583.42q-8.94,21.16-18.55,41.15c-39.81,83.14-88.6,152-147.67,208.14a605.82,605.82,0,0,1-59.72,50.08c-67.44,49.75-144.09,83.6-227.81,100.66a54.54,54.54,0,0,1-11.55,1.14H-1918l-2.12-.27a54.19,54.19,0,0,1-12.17-3,572.09,572.09,0,0,1-211.95-128.88,620.27,620.27,0,0,1-103-129.21q-16.52-27.42-30.76-57.13v0q-30.84-64.08-51.59-139.66c-41.48-150.26-52.1-311.05-32.55-491.48l1.79-28.17a61.34,61.34,0,0,1,65.1-57.17l80.8,5.24c6.62.3,179.87,6.08,347.87-163.76l27.84-28.16,24,31.52c144.7,190.19,317.38,206.77,324.65,207.41l80,5.14a61.33,61.33,0,0,1,57.13,65.1l-1.92,30.21C-1358.72,2281.9-1390,2439.76-1450.54,2583.42Z" transform="translate(3101.24 -916.77)" style="fill:#fff"/><path d="M-1842.12,1815.27c-179.68,181.64-366.48,174.27-374.54,173.91l-80.82-5.24a26.9,26.9,0,0,0-28.54,25l-1.92,29.66c-19.09,176.18-8.77,332.57,31.52,478.63,35.8,129.65,93.33,231.18,176,310.34,56.93,54.58,124.22,95.48,200.14,121.51a20.83,20.83,0,0,0,4.56,1,22,22,0,0,0,4.56-.41c78.71-16.05,150.8-47.87,214.29-94.66,92.17-67.85,162.35-161.1,214.6-285,58.82-139.64,89.25-293.38,93-470l1.93-30.27a26.88,26.88,0,0,0-25-28.52l-80.64-5.23C-1501.2,2035.41-1687.42,2018.59-1842.12,1815.27Z" transform="translate(3101.24 -916.77)" style="fill:#5e97fe"/><path d="M-1643.63,2200.84l-302.32,254.78-42.55-136.54-30.84-9.57,60.67,268.14c20.66,39.08,70.86,19.95,97-15.7l229.52-370.24Z" transform="translate(3101.24 -916.77)" style="fill:#4462cc"/><path d="M-1649.55,2178l-302.33,254.77-67.46-123.27-92.78,55.72,103,194.85c20.65,39.08,75.09,43.08,101.24,7.44l275.76-375.81Z" transform="translate(3101.24 -916.77)" style="fill:#fff"/><path d="M-1427.75,2040.31c-63.24,303.82-342,522.55-660.49,501.9a631.47,631.47,0,0,1-215.38-52.71,1096.2,1096.2,0,0,1-21.47-110.16c-15.2-106.15-16.08-218.67-2.82-340.73L-2326,2009a26.87,26.87,0,0,1,28.5-25.11l80.85,5.24c8.07.45,194.8,7.68,374.53-173.92,85.31,112.1,180.19,167.53,249.55,194.82,56.33,22.2,95.78,25.78,99.54,26Z" transform="translate(3101.24 -916.77)" style="fill:#a4b7fc;mix-blend-mode:screen;opacity:0.2"/><path d="M-1592.56,2010.06c-101.79,241.51-348.08,403.63-624.27,385.73a632.19,632.19,0,0,1-108.26-16.45c-15.2-106.15-16.08-218.67-2.82-340.73L-2326,2009a26.87,26.87,0,0,1,28.5-25.11l80.85,5.24c8.07.45,194.8,7.68,374.53-173.92C-1756.8,1927.34-1661.92,1982.77-1592.56,2010.06Z" transform="translate(3101.24 -916.77)" style="fill:#a4b7fc;mix-blend-mode:screen;opacity:0.2"/><path d="M-1230.16,2965.34l1.74-28.72,6.05-.22,21.86-.71-4.66,33.79s34,44.39,12.05,52S-1233.69,2971.65-1230.16,2965.34Z" transform="translate(3101.24 -916.77)" style="fill:#d7a28e"/><path d="M-1230.87,2981.47c.36,12.19,21.25,51.61,35.1,49.77,13.67-1.77,22.31-19.59,11.83-38.59s-15.86-23.73-15.86-23.73,5.74-13.26,2.25-18.7l-2.72.18c-6.92.35-24.92,1-30.24-1.19a1.63,1.63,0,0,0-1.13-.12C-1236.43,2950.1-1231,2976.38-1230.87,2981.47Z" transform="translate(3101.24 -916.77)" style="fill:#2a2659"/><path d="M-1230.51,2954c10.41,12.37,31.07-.65,31.07-.65a2.4,2.4,0,0,0-.83-2.9c-6.92.35-24.92,1-30.24-1.19a1.63,1.63,0,0,0-1.13-.12C-1232.47,2950.34-1232.23,2951.94-1230.51,2954Z" transform="translate(3101.24 -916.77)" style="fill:#17143a"/><path d="M-1336,2199l58.18,393.24,47.25,350.56s6.93,9.22,31.36,1.06l40.45-369.91-5.84-384.73Z" transform="translate(3101.24 -916.77)" style="fill:#2a2659"/><path d="M-1269,2657.94c.42-1.12.86-2.24,1.26-3.37,5.36-15,7.9-30.81,9.08-46.62a250.53,250.53,0,0,0,.39-37.16c-1.59-21.56-6-42.88-10.41-64-5-24-10.5-47.84-14.78-72-4.11-23.11-7.31-46.58-7.07-70.11.2-20.12,3.06-40.92,12.41-59a77.7,77.7,0,0,1,15.36-20.92c6.3-5.92,13.93-10.59,21.45-14.78a156.65,156.65,0,0,1,29.6-12.85c8.92-2.77,18.77-4.93,28.15-3.5a24.92,24.92,0,0,1,19.27,14.07c.32.66.59,1.34.88,2l-1.22-80.54L-1336,2199l58.18,393.24Z" transform="translate(3101.24 -916.77)" style="fill:#202234;mix-blend-mode:multiply;opacity:0.25"/><path d="M-1355.78,1849.2s-247.09,69.91-216.2,128.18,176.18-4.07,189.37-30.77C-1383,1919.9-1355.78,1849.2-1355.78,1849.2Z" transform="translate(3101.24 -916.77)" style="fill:#eaa568"/><path d="M-1377.12,1874.57a172,172,0,0,0-16,18.53c-4.59,6.1-8.52,12.61-12.94,18.82-8.1,11.4-18.69,21.25-32,26.06-13.54,4.88-28.22,4.63-42.29,2.61-8.16-1.17-16.11-3-24.4-3a58.31,58.31,0,0,0-21.17,4c-14.43,5.74-25.75,17-35.27,29a104,104,0,0,0-7.83,11.5c36.16,50,173.6-9.51,186.42-35.45-.31-20.2,15.19-65.53,22.76-86.45A121.53,121.53,0,0,0-1377.12,1874.57Z" transform="translate(3101.24 -916.77)" style="fill:#202234;mix-blend-mode:multiply;opacity:0.15"/><path d="M-1368.53,1853.3c57.27-38.53,155.32-28.55,200.12,17.38s44.8,343.81,0,343.81-183.47,83.05-205.87-7.56S-1431.25,1895.5-1368.53,1853.3Z" transform="translate(3101.24 -916.77)" style="fill:#f7c06b"/><path d="M-1307.83,1956.13c2-7.12,4.14-14.23,5.37-21.54.88-5.25,1.4-10.85.28-16.12-12,15.72-25.52,31.87-30.7,51.23-3.23,12.1-3.07,27.17-12.93,36.29-5,4.65-12.18,6.54-18.84,7.13-5.12.46-10.33-.11-14.87-2.67-8.28-4.67-11.81-14.43-14.73-22.92-2.6-7.57-5-15.84-9.74-22.41-.91,33.11,1.51,69.77,5.62,105.39h.33c10.54.87,20.81,4.92,26.8,14,3.89,5.92,4.17,13.12,3.81,20-.39,7.56-.83,15-.28,22.57a66.13,66.13,0,0,0,5,21.51c2.31,5.41,5.08,11.26,8.73,15.91.67.85,2.11,2.92,3.43,2.71,1.82-.31,2.82-4.31,3.24-5.65,2.44-7.72,3-15.86,3.19-23.91.42-15.39.59-31.2,10.15-44.16,3.88-5.27,8.61-9.9,12-15.51,4-6.6,5.26-14.3,6-21.87,1.82-17.82-.24-35.74.58-53.6A207,207,0,0,1-1307.83,1956.13Z" transform="translate(3101.24 -916.77)" style="fill:#202234;mix-blend-mode:multiply;opacity:0.15"/><path d="M-1208.35,1923.69a116,116,0,0,0-3.7,15.14,128.83,128.83,0,0,0-.31,39.88c2,13.61,6.44,26.07,12.09,38.53,10.28,22.69,23,47.88,13.53,73.07-7.13,19-25.8,27.92-38.72,42.27-3.67,4.08-5.11,7.91-6.49,13.27-1.63,6.29-2.81,12.69-4.1,19.06-1.4,6.86-2.83,13.74-4.76,20.48-1.52,5.29-3.3,10.91-6.57,15.42-2.45,3.37-6,5.91-10.38,5.09-5.76-1.09-10.56-7-13.5-11.6-5.42-8.57-6.47-19.45-7.41-29.31-.52-5.32-.89-10.67-1.63-16s-2-10.5-3-15.75c-2.5-13.49-4.73-27-5.37-40.77-.69-14.74.73-29.5,1.41-44.22,2.26-48.91,2.65-97.86,2.72-146.81-1.44,5.14-3.07,10.23-4.76,15.26-5.06,15-10.15,29.86-13.29,45.45-5.76,28.59-7.24,57.79-8.47,86.85-1.15,27.26-5.37,53.89-10.68,80.62-7.61,38.23-16.9,77.78-16,117,50.71,13.77,136-32.15,169.3-32.15,32.18,0,41.25-153.69,27.2-257.3C-1166.33,1953-1190.29,1941.76-1208.35,1923.69Z" transform="translate(3101.24 -916.77)" style="fill:#202234;mix-blend-mode:multiply;opacity:0.15"/><path d="M-1277.38,1859.37c-4.1-1.41-1.75-8.73-5.84-10.17-2.06,1.17-12.67,9.2-14.73,10.37.61,3.25,8.49,6.78,9.1,10-40.73,98.91-48.77,184.11-77.61,282.3,7,35.82,11.85,71.68,21.51,107a524.56,524.56,0,0,0,43.76-100.18c-7.31-94.69,5.72-195.53,22.35-288.54,2.34-1.85,4.28-4,6.62-5.84C-1272.73,1862.31-1276.83,1861.37-1277.38,1859.37Z" transform="translate(3101.24 -916.77)" style="fill:#f15a29"/><path d="M-1291.8,1834.36a79.78,79.78,0,0,1,15.55-2.24,45,45,0,0,1,7.94.28,2.69,2.69,0,0,0,2.36,3.42c3.8.64,7.66.9,11.39,1.84a10,10,0,0,1,4,1.72c-.22.62,7.37,11.17-8.7,32.93-3,4.1-10.66-1.62-5.92-22.89,1.09-4.89-22.78,19.06-27.93,20.48-7.66,2.11-17.09-11.24-9.2-21,2.56-3.18,4.85-13.49,7.65-16.15C-1291.5,1829.66-1296.14,1835.41-1291.8,1834.36Z" transform="translate(3101.24 -916.77)" style="fill:#202234;mix-blend-mode:multiply;opacity:0.15"/><path d="M-1291,1805.48l-3.56,25.55s6.17,34,39.15,6.75l-9.79-40.66Z" transform="translate(3101.24 -916.77)" style="fill:#d7a28e"/><path d="M-1265.23,1797.12l-25.8,8.36-1.37,15.82c.63.22,1.26.44,1.9.64,3,1,6.11,1.76,9.08,2.92a17.78,17.78,0,0,1,6.4,3.9c1.85,1.9,2.42-6.59,2.64-4,.36,4.31-1.74,8.16-3.18,12.08-.92,2.51-1.35,5.87-3.53,7.67a9.22,9.22,0,0,1-5.79,1.88c5.9,3.44,15.15,3.14,29.44-8.65Z" transform="translate(3101.24 -916.77)" style="fill:#33133f;mix-blend-mode:multiply;opacity:0.15"/><path d="M-1317.23,1731.2s-12.52,85.79,19.43,86.63,52.57-33.85,52.57-33.85,13.16-2.59,13.47-18.56c.26-12.88-7.6-10.26-7.6-10.26s4.92-33-18.18-38.59S-1317.23,1731.2-1317.23,1731.2Z" transform="translate(3101.24 -916.77)" style="fill:#d7a28e"/><path d="M-1268.74,1773.54c.43,2.06-1.75,4.25-4.87,4.9s-6-.51-6.41-2.57,1.75-4.25,4.87-4.89S-1269.16,1771.48-1268.74,1773.54Z" transform="translate(3101.24 -916.77)" style="fill:#33133f;mix-blend-mode:multiply;opacity:0.05"/><path d="M-1304.25,1775c.42,2.06-1.75,4.25-4.87,4.89s-6-.5-6.41-2.56,1.75-4.26,4.87-4.9S-1304.68,1773-1304.25,1775Z" transform="translate(3101.24 -916.77)" style="fill:#33133f;mix-blend-mode:multiply;opacity:0.05"/><path d="M-1303.46,1755.5a.88.88,0,0,1-.77-.41c-.16-.24-3.75-5.72-11.93-1.73a.87.87,0,0,1-1.17-.41.86.86,0,0,1,.4-1.17c9.64-4.71,14.14,2.31,14.18,2.38a.88.88,0,0,1-.28,1.21A.94.94,0,0,1-1303.46,1755.5Z" transform="translate(3101.24 -916.77)" style="fill:#241d51"/><path d="M-1286.45,1755a1,1,0,0,1-.33,0,.88.88,0,0,1-.53-1.12c0-.08,2.94-7.84,14.55-5.8a.89.89,0,0,1,.72,1,.88.88,0,0,1-1,.71c-10.18-1.8-12.57,4.59-12.6,4.66A.87.87,0,0,1-1286.45,1755Z" transform="translate(3101.24 -916.77)" style="fill:#241d51"/><path d="M-1295.63,1777.33a3.06,3.06,0,0,1-.9-.09,4.7,4.7,0,0,1-2.78-2.62.88.88,0,0,1,.07-.79c3-4.94,1.89-11.43,1.88-11.49a.89.89,0,0,1,.71-1,.88.88,0,0,1,1,.72c.05.28,1.13,6.85-1.87,12.27a2.61,2.61,0,0,0,1.41,1.23,2.5,2.5,0,0,0,2.11-.78.89.89,0,0,1,1.24.12.88.88,0,0,1-.12,1.24A4.69,4.69,0,0,1-1295.63,1777.33Z" transform="translate(3101.24 -916.77)" style="fill:#241d51"/><path d="M-1305.86,1762.66c.1,2.73-1.33,5-3.2,5.07s-3.47-2.09-3.57-4.82,1.34-5,3.21-5.07S-1306,1759.93-1305.86,1762.66Z" transform="translate(3101.24 -916.77)" style="fill:#241d51"/><path d="M-1275.93,1761.57c.1,2.73-1.34,5-3.21,5.06s-3.46-2.09-3.56-4.82,1.33-5,3.2-5.06S-1276,1758.84-1275.93,1761.57Z" transform="translate(3101.24 -916.77)" style="fill:#241d51"/><path d="M-1240.67,1760.42s5-2.59,6.16,1-1.74,12.82-6.58,15.1c0,0,8.61-9,5.51-14S-1240.28,1762.92-1240.67,1760.42Z" transform="translate(3101.24 -916.77)" style="fill:#33133f;mix-blend-mode:multiply;opacity:0.05"/><path d="M-1283.22,1851.74s7.52,23.36,17.26,15.89,32.46-29.94,7.78-44.64c0,0,.55,13.78-2,17.14-8,10.42-22.58,2.38-22.58,2.38s-12-4.76-12.34-15.43c0,0-19.4,30.1-6.58,34.55S-1283.22,1851.74-1283.22,1851.74Z" transform="translate(3101.24 -916.77)" style="fill:#eaad5e"/><path d="M-1266.63,1696.22c-33.64,2.44-18.58-16.12-26.34-9-6.18,5.65,2.3,10.49,6,12.25-5-1.85-44.95-2.28-50.83,28.28-7.09,36.8,70.2-1.77,70.2-1.77-4.7,14.23,11.08,29.31,17.9,35-.12,8.27-11.1,17.69-15.41,27.16-6.15,13.52-5.45-3.79-18.35-5.09s-37.37,2.25-35.62,13.71,12.87,24.79,26.29,22.08c19.57-4,48.7-14.49,48.8-56.92C-1230.65,1745.46-1233.85,1693.85-1266.63,1696.22Z" transform="translate(3101.24 -916.77)" style="fill:#241d51"/><path d="M-1306.82,1791.62a27.23,27.23,0,0,0,21.18-1.46C-1282.93,1794.72-1295.76,1807.32-1306.82,1791.62Z" transform="translate(3101.24 -916.77)" style="fill:#fcfaf7"/><path d="M-1293.39,1803.56a6.9,6.9,0,0,1-1.6-.1.42.42,0,0,1-.34-.51.44.44,0,0,1,.51-.35,9,9,0,0,0,7.29-2.43.44.44,0,0,1,.62,0,.43.43,0,0,1,0,.62A10,10,0,0,1-1293.39,1803.56Z" transform="translate(3101.24 -916.77)" style="fill:#33133f;mix-blend-mode:multiply;opacity:0.05"/><path d="M-1328.7,2039.53s-8.37-9.34-12-9.3c-8.37.09-15.08,5.26-16,7.74C-1346.68,2036.86-1328.7,2039.53-1328.7,2039.53Z" transform="translate(3101.24 -916.77)" style="fill:#d7a28e"/><path d="M-1344.93,2033.58c1.18-1.14,2.58-2.1,3.68-3.33-8.09.32-14.52,5.3-15.44,7.72a65.36,65.36,0,0,1,9-.21A12.79,12.79,0,0,1-1344.93,2033.58Z" transform="translate(3101.24 -916.77)" style="fill:#fff;opacity:0.2"/><path d="M-1352.94,2067.14a52.46,52.46,0,0,0,7.17,1.72h0l1.58.4h0c.69.17,1.54.34,2.46.51h0s10.2,2.55,12.09,0,.44-4.44.44-4.44a4.52,4.52,0,0,0,3.74-3.29,4,4,0,0,0-1.08-4.23,4.36,4.36,0,0,0,3.61-3.57,5.74,5.74,0,0,0-1.51-5.41s4.23-.65,2.34-5.59-9.6-5.39-9.92-5.46c-1.37-.29-2.71-.51-4-.67a5.37,5.37,0,0,0-1.06-.11c-25.4,2-64.2-14.7-67.59-11.7,0,0-9.75,18.55-5.7,21.8,4.59,1.49,45.81,10.46,45.81,10.46S-1361.93,2064.37-1352.94,2067.14Z" transform="translate(3101.24 -916.77)" style="fill:#d7a28e"/><path d="M-1345.77,2068.86h0l1.58.4h0c.69.17,1.54.34,2.46.51h0s10.2,2.55,12.09,0,.44-4.44.44-4.44a4.52,4.52,0,0,0,3.74-3.29,4,4,0,0,0-1.08-4.23,4.36,4.36,0,0,0,3.61-3.57,5.74,5.74,0,0,0-1.51-5.41s4.23-.65,2.34-5.59a7.23,7.23,0,0,0-3.68-3.76,9,9,0,0,1,.7,5.91,4.09,4.09,0,0,1-.64,1.37c-.35.47-.81.83-1.2,1.26-.83.93-.58,2.16-.48,3.32a7.83,7.83,0,0,1-.58,4.33,14.54,14.54,0,0,1-2,2.72,5.77,5.77,0,0,0-1.5,3.14,8.92,8.92,0,0,1-.7,3.31,5.88,5.88,0,0,1-4.74,3,21.18,21.18,0,0,1-4.06,0c-1.76-.11-3.52-.26-5.28-.41a72.26,72.26,0,0,1-8.94-1.09,20.67,20.67,0,0,0,2.27.85A52.46,52.46,0,0,0-1345.77,2068.86Z" transform="translate(3101.24 -916.77)" style="fill:#fff;opacity:0.2"/><path d="M-1565.81,1943.8c16.45-18.53,71.39-13.36,195.84,89.34,0,0-.48,18.13-3.6,22.47s-102.17-14.2-155.24-35.75C-1593.65,1993.53-1576.2,1955.51-1565.81,1943.8Z" transform="translate(3101.24 -916.77)" style="fill:#f7c06b"/><path d="M-1376.28,2040.06c-10.83,1.16-21.61-3.74-31.75-6.8-12.41-3.74-25.14-3.81-37.87-5.75a95.31,95.31,0,0,1-20.92-5.25,76.64,76.64,0,0,1-18.08-10.78c-5.66-4.34-11.2-9-17.71-12.08a49.72,49.72,0,0,0-17.5-4.29c-10.5-.82-22,.27-31.73-4.5-9.25-4.53-14.62-13.92-15.2-24-.24-4.23-.07-8.49-.48-12.71-.17-1.7-.37-4.27-1.41-6-9.87,14.84-18.47,48.17,40.12,72,53.07,21.55,152.12,40.09,155.25,35.75,2-2.83,2.94-11.53,3.33-17.24A20.48,20.48,0,0,1-1376.28,2040.06Z" transform="translate(3101.24 -916.77)" style="fill:#202234;mix-blend-mode:multiply;opacity:0.15"/><path d="M-1195.62,2211.47s-.22-13.25,2.6-15.81c6.55-5.93,15.47-6.74,18-5.5C-1183.6,2196.49-1195.62,2211.47-1195.62,2211.47Z" transform="translate(3101.24 -916.77)" style="fill:#d7a28e"/><path d="M-1231.75,2145.44c.59,2.32-4.22,8.24-4.22,8.24l7.18,7.81a24.64,24.64,0,0,1-2.28,3.33c-1.85,2.27-3.73,2.81-5.43,2.22-5.92-2.07-9.47-18-.58-21.54C-1233.45,2144.07-1232,2144.37-1231.75,2145.44Z" transform="translate(3101.24 -916.77)" style="fill:#f69162"/><path d="M-1226,2151.48a22.27,22.27,0,0,1-3.34,10.4l-7.71-8.17s5.44-6.43,4.85-8.9Z" transform="translate(3101.24 -916.77)" style="fill:#fff"/><path d="M-1100.08,2257.4c-5.11,13.36-33.83,23.58-34.73,21.07-11.56-32.43-103.62-112.66-103.62-112.66,1.76.56,3.74,0,5.72-2.37a26.26,26.26,0,0,0,2.46-3.43,21.21,21.21,0,0,0,3.17-9.86c.37-6.22,6.09-2.77,6.09-2.77S-1190.16,2215.27-1100.08,2257.4Z" transform="translate(3101.24 -916.77)" style="fill:#fff"/><path d="M-1125.81,2272.15c-4-1.91-7.92-4.14-10.87-7.52-5-5.71-5.92-13.88-11.14-19.41-4.64-4.9-11.53-7.37-13.88-14.21-1.35-3.93-.81-8.14-1.13-12.21,0-.46-.15-.86-.21-1.3a262.49,262.49,0,0,1-32.63-32.54,9.28,9.28,0,0,0,.28,1.74c.72,2.51,3.07,4.7,2.42,7.48-1,4.23-6.65,3.77-9.66,2.36-4.74-2.2-7.4-6.32-9.58-10.86a26,26,0,0,0-4-6.54,19.26,19.26,0,0,0-6.94-4.5,33.11,33.11,0,0,0-7.68-2c22.28,20,86.45,79.15,96,105.88.44,1.21,7.42-.58,15.08-4.26A26,26,0,0,1-1125.81,2272.15Z" transform="translate(3101.24 -916.77)" style="fill:#202234;mix-blend-mode:multiply;opacity:0.15"/><path d="M-1157,2215.47a55.47,55.47,0,0,1-4.33,6.49h0s0,0,0,0l-.94,1.44h0c-.42.63-1,1.38-1.55,2.17h0s-6.08,9.3-9.37,8.68-3.54-3.12-3.54-3.12a4.78,4.78,0,0,1-5.25.14c-2.64-1.77-2.2-4.06-2.2-4.06a4.63,4.63,0,0,1-5.37-.17,6.06,6.06,0,0,1-2.7-5.28s-3.75,2.52-5.84-2.66,3.57-11.07,3.78-11.35c.85-1.21,1.73-2.34,2.62-3.4a7.51,7.51,0,0,1,.74-.85c21.17-16.65,39.22-57.49,44-57.61,0,0,20.88,7.38,20.07,12.81-2.48,4.46-28,41-28,41S-1152,2206.87-1157,2215.47Z" transform="translate(3101.24 -916.77)" style="fill:#d7a28e"/><path d="M-1161.33,2222h0s0,0,0,0l-.94,1.44h0c-.42.63-1,1.38-1.55,2.17h0s-6.08,9.3-9.37,8.68-3.54-3.12-3.54-3.12a4.78,4.78,0,0,1-5.25.14c-2.64-1.77-2.2-4.06-2.2-4.06a4.63,4.63,0,0,1-5.37-.17,6.06,6.06,0,0,1-2.7-5.28s-3.75,2.52-5.84-2.66a7.77,7.77,0,0,1,.15-5.56,9.5,9.5,0,0,0,3.71,5.09,4.36,4.36,0,0,0,1.48.6c.6.12,1.22.06,1.83.12,1.32.12,2,1.26,2.76,2.23a8.23,8.23,0,0,0,3.55,2.93,15.22,15.22,0,0,0,3.55.65,6.1,6.1,0,0,1,3.41,1.36,9.33,9.33,0,0,0,2.92,2.06,6.2,6.2,0,0,0,5.8-1.11,21.69,21.69,0,0,0,3.12-2.94q1.92-2,3.79-4.11a78.88,78.88,0,0,0,6.16-7.27,23.35,23.35,0,0,1-1.15,2.29A55.47,55.47,0,0,1-1161.33,2222Z" transform="translate(3101.24 -916.77)" style="fill:#fff;opacity:0.2"/><path d="M-1168.41,1870.68s88.84,64.64,120.64,149-104.58,175.94-104.58,175.94l-22.69-12s19.19-72.34,56.34-127.25c-50.4-30-111.11-110.69-98.67-164C-1210.17,1861.58-1168.41,1870.68-1168.41,1870.68Z" transform="translate(3101.24 -916.77)" style="fill:#f7c06b"/><g style="mix-blend-mode:multiply;opacity:0.1"><path d="M-1057,1998.72c-2.57,10-2.32,20.7-2.73,31a96.22,96.22,0,0,1-7.69,35.19c-7.57,17.43-20.69,31.31-30.61,47.32-9.13,14.73-17,30-28,43.49-9.07,11-21.21,23.1-36.26,24.44a29.21,29.21,0,0,1-11.32-1.23c-.9,3.07-1.35,4.78-1.35,4.78l22.69,12s136.38-91.55,104.58-175.94A221.21,221.21,0,0,0-1057,1998.72Z" transform="translate(3101.24 -916.77)" style="fill:#202234"/></g></g></g></svg>