<svg id="Layer_1" data-name="Layer 1" xmlns="http://www.w3.org/2000/svg" viewBox="0 0 3000 2000"><defs><style>.cls-1{fill:#fff;}.cls-2{fill:#c0f2ff;}.cls-3{fill:#389b1c;}.cls-4{fill:#a8d29f;}.cls-5{fill:#82b378;}.cls-6{fill:#51bf36;}.cls-7{fill:#f1a34f;}.cls-8{fill:#d86713;}.cls-9{fill:#0672a3;}.cls-10{fill:#00adea;}.cls-11{fill:#78d2ea;}.cls-12{fill:#afcdfb;opacity:0.2;}.cls-13{fill:#e2810e;}.cls-14{fill:#ffb93e;}.cls-15{fill:#ffa412;}.cls-16{fill:#e9f3fe;}.cls-17{fill:#2e3552;}</style></defs><rect class="cls-1" width="3000" height="2000"/><path class="cls-2" d="M2804.43,1524.35S3038.6,1085.46,2763,876c-153.8-116.88-363.8,90.63-519.75-223.06-90.76-182.56-408.36-238-567.18,11.26s-295.35,248-404.93,201.88c-125.67-52.88-180.88-212-377.59-178.36C666.15,726.62,696.59,962.42,529.06,921.36,206,842.18-33.39,1294.54,189.94,1527.46Z"/><path class="cls-3" d="M1539.31,1258.49s-45.59,33.9-54.48,31.84,33.32-36.59,33.32-36.59c-15.88-7.64-65.26-2.85-65.26-2.85s-16.44,53-24.55,48.85,17-46.22,17-46.22c-17.69-1.06-39.38,12.07-39.38,12.07-29.71,23.46,1.95,60.39,1.95,60.39s-6.1,18.26-24.85,34.88c0,0-26.79,19.81-28.66,55.21l4.87.44s7.71-33,21.71-48.57l2.32-2.36c2.28-2.11,3.88-3.7,5-4.88,7-6.69,16.61-15.23,21.25-16a9.23,9.23,0,0,1-.2-2.34c.06.75.13,1.52.2,2.34,1.59,18.66,37.8,35,60.08,38.31s15.39-5.8,7.71-19.38-32-19.65-37.51-25.9,5.92-6.27,19.34-.14,15.26,22.47,36.79,32.79,53.93-25.42,53.93-25.42c-17.16-.87-41.66-19.51-40.78-25.21s41.6,9.84,48.56,10.58,22.79-7.91,25.24-35.94S1539.31,1258.49,1539.31,1258.49Z"/><path class="cls-4" d="M1297.18,1279.54s50.36-28.2,26.86-66.47c0,0-18.8-23.5-38.94-29.55,0,0,10.74,57.07,0,58.42s-7.39-64.46-7.39-64.46-53-25.51-73.86-23.5c0,0,32.9,55.73,22.16,54.39s-47.67-57.74-47.67-57.74-54.38-10.07-63.11,22.15,5.37,48.34,13.43,50.36,59.75,1.34,58.41,8-36.26,17.46-55.73,11.42c0,0,21.49,53,49.69,50.35s36.92-20.14,54.38-21.48,30.21,3.36,21.49,8.06-38.27,1.54-52.37,13.52-25.52,19.38.67,24.75,73.18,2,82.58-18.13Z"/><path class="cls-5" d="M1310.61,1328.55c-14.1-26.19-13.43-49-13.43-49-16.11-51-157.11-96.69-157.11-96.69,179.27,72.52,147.71,116.83,147.71,116.83,4.83,2.82,12.08,16.25,17.1,26.56.72,1.76,1.85,4.19,3.54,7.48h0c.68,1.49,1.23,2.71,1.6,3.56,9.23,23.1,4.34,63,4.34,63l5.6,1.5C1332.35,1361.57,1310.61,1328.55,1310.61,1328.55Z"/><path class="cls-6" d="M1377.29,1240.65s-66.38-37.18-35.4-87.62c0,0,24.78-31,51.33-39,0,0-14.16,75.23,0,77s9.74-85,9.74-85,69.92-33.63,97.35-31c0,0-43.36,73.46-29.2,71.69s62.83-76.11,62.83-76.11,71.69-13.28,83.2,29.2-7.08,63.73-17.7,66.38-78.77,1.77-77,10.62,47.79,23,73.46,15c0,0-28.32,69.92-65.5,66.38s-48.67-26.56-71.68-28.32-39.83,4.42-28.32,10.62,50.44,2,69,17.83,33.63,25.53-.89,32.61-96.47,2.66-108.86-23.89Z"/><path class="cls-3" d="M1584.39,1113.2s-185.86,60.18-207.1,127.45c0,0,.89,30.09-17.7,64.6,0,0-28.66,43.53-12.32,96.51l7.37-2s-6.44-52.57,5.72-83c.5-1.12,1.22-2.73,2.12-4.7h0c2.22-4.34,3.72-7.54,4.66-9.86,6.63-13.59,16.17-31.3,22.54-35C1389.68,1267.2,1348.09,1208.78,1584.39,1113.2Z"/><path class="cls-7" d="M1245,1386.63a130,130,0,1,0,260,0Z"/><path class="cls-7" d="M1490.83,1508.66H1259.28a16,16,0,0,0-16,16h263.64A16.06,16.06,0,0,0,1490.83,1508.66Z"/><path class="cls-8" d="M1506,1390.62H1242.75a2,2,0,0,1-2-2h0a2,2,0,0,1,2-2H1506a2,2,0,0,1,2,2h0A2,2,0,0,1,1506,1390.62Z"/><rect class="cls-9" x="1759.52" y="455.78" width="563.35" height="1068.93" rx="28.83" transform="translate(4082.39 1980.48) rotate(180)"/><rect class="cls-10" x="1704.92" y="455.78" width="563.35" height="1068.93" rx="28.83" transform="translate(3973.18 1980.48) rotate(180)"/><path class="cls-9" d="M1904,507.64h146.44a5.72,5.72,0,0,0,5.7-5.7h0a5.71,5.71,0,0,0-5.7-5.7H1904a5.72,5.72,0,0,0-5.7,5.7h0A5.72,5.72,0,0,0,1904,507.64Z"/><path class="cls-9" d="M2076.48,507.64h0a5.72,5.72,0,0,0,5.7-5.7h0a5.72,5.72,0,0,0-5.7-5.7h0a5.72,5.72,0,0,0-5.7,5.7h0A5.72,5.72,0,0,0,2076.48,507.64Z"/><path class="cls-9" d="M2016.36,1465.64a36.75,36.75,0,1,0-36.75,36.75A36.74,36.74,0,0,0,2016.36,1465.64Z"/><rect class="cls-1" x="1753" y="540.54" width="468.37" height="864.59"/><rect class="cls-9" x="796.55" y="566.46" width="505.02" height="958.25" rx="25.84"/><rect class="cls-10" x="845.5" y="566.46" width="505.02" height="958.25" rx="25.84"/><rect class="cls-1" x="863.56" y="643.07" width="467.83" height="776.48"/><path class="cls-9" d="M1040.74,602.73H1172a5.11,5.11,0,1,1,0,10.22H1040.74a5.11,5.11,0,1,1,0-10.22Z"/><path class="cls-9" d="M1017.42,602.73a5.11,5.11,0,1,1-5.1,5.11A5.13,5.13,0,0,1,1017.42,602.73Z"/><circle class="cls-9" cx="1097.48" cy="1478.54" r="26.16" transform="translate(-593.66 2206.96) rotate(-76.72)"/><polygon class="cls-3" points="2076.8 349.95 2217.25 391.16 2131.47 312.53 2123.62 332.62 2087.83 333.89 2076.8 349.95"/><polygon class="cls-6" points="2217.25 391.16 2106.81 312.37 1990.7 289.56 2217.25 391.16"/><polygon class="cls-6" points="2131.47 312.53 2217.25 391.16 2158.24 279.13 2131.47 312.53"/><path class="cls-10" d="M2144.76,1213.83l.07-161.84a10.2,10.2,0,0,0-10.18-10.19l-294.85-.13a10.2,10.2,0,0,0-10.19,10.18l-.08,161.83a10.22,10.22,0,0,0,10.18,10.19l294.86.13A10.2,10.2,0,0,0,2144.76,1213.83Z"/><rect class="cls-9" x="1829.59" y="1068.83" width="315.23" height="36.06"/><rect class="cls-11" x="1853.3" y="1114.93" width="192.87" height="28.35"/><path class="cls-11" d="M1892.62,1194.21v-20.67a7.7,7.7,0,0,0-7.69-7.7h-24a7.7,7.7,0,0,0-7.7,7.7v20.66a7.7,7.7,0,0,0,7.69,7.7h24A7.69,7.69,0,0,0,1892.62,1194.21Z"/><path class="cls-12" d="M1928.6,1169.5l189.47.09a3,3,0,0,0,3-3v-2.92a3,3,0,0,0-3-3l-189.46-.08a3,3,0,0,0-3,3v2.91A3,3,0,0,0,1928.6,1169.5Z"/><path class="cls-12" d="M1928.56,1186.14l189.54.09a2.94,2.94,0,0,0,2.94-2.94v-2.78a3,3,0,0,0-3-3l-189.54-.09a3,3,0,0,0-2.94,3v2.78A2.93,2.93,0,0,0,1928.56,1186.14Z"/><path class="cls-12" d="M2121,1199.32v-3.15a3,3,0,0,0-3-3l-189.35-.09a3,3,0,0,0-3,3v3.15a3,3,0,0,0,3,3l189.35.09A3,3,0,0,0,2121,1199.32Z"/><rect class="cls-9" x="944.48" y="904.64" width="306" height="203.11" rx="18.07"/><rect class="cls-3" x="957.5" y="845.61" width="246.5" height="125.88"/><rect class="cls-3" x="956.19" y="843.74" width="246.5" height="125.88"/><rect class="cls-3" x="954.44" y="842.11" width="246.5" height="125.88"/><rect class="cls-6" x="952.75" y="840.57" width="246.5" height="125.88"/><path class="cls-3" d="M962.39,850V957h227.22V850ZM1181,948.72H971V858.3h210Z"/><path class="cls-3" d="M962.39,850v24.34A19.8,19.8,0,0,0,987,850Z"/><path class="cls-3" d="M1189.61,849.91h-24.34a19.8,19.8,0,0,0,24.34,24.6Z"/><path class="cls-3" d="M1189.61,957h-24.34a19.79,19.79,0,0,1,19-25.33,19.7,19.7,0,0,1,5.29.74Z"/><path class="cls-3" d="M962.39,956.91V932.57A19.8,19.8,0,0,1,987,956.91Z"/><path class="cls-3" d="M1102.67,903.51A26.67,26.67,0,1,1,1076,876.85,26.67,26.67,0,0,1,1102.67,903.51Z"/><circle class="cls-13" cx="1170.7" cy="917.43" r="50.66" transform="translate(-128.27 192.93) rotate(-8.93)"/><path class="cls-14" d="M1160,867.71a50.66,50.66,0,1,0,56.55,44A50.66,50.66,0,0,0,1160,867.71Z"/><path class="cls-15" d="M1172.11,964.36a46.15,46.15,0,1,1,40.07-51.52A46.21,46.21,0,0,1,1172.11,964.36ZM1161,875.5a43.4,43.4,0,1,0,48.44,37.69A43.45,43.45,0,0,0,1161,875.5Z"/><path class="cls-15" d="M1174.35,931.07a7.38,7.38,0,0,0-.44-2.64,5.59,5.59,0,0,0-1.4-2.07,10.42,10.42,0,0,0-2.49-1.7,27.78,27.78,0,0,0-3.73-1.52,73.65,73.65,0,0,1-6.88-2.73,23,23,0,0,1-5.3-3.31,13.6,13.6,0,0,1-3.44-4.42,15.23,15.23,0,0,1-.2-11.6,12.72,12.72,0,0,1,3-4.39,16.24,16.24,0,0,1,4.78-3.05,21,21,0,0,1,6.25-1.52l0-7.66,6.16,0,0,7.76a19.33,19.33,0,0,1,6,1.72,14.49,14.49,0,0,1,7.55,8.38,19.23,19.23,0,0,1,1.06,6.46l-11.14.07q0-4.29-1.94-6.41a6.47,6.47,0,0,0-5.12-2.1,8.14,8.14,0,0,0-3,.5,5.62,5.62,0,0,0-2.05,1.34,5.19,5.19,0,0,0-1.18,2,7.65,7.65,0,0,0-.37,2.47,7,7,0,0,0,.4,2.4,5.32,5.32,0,0,0,1.34,2,10.51,10.51,0,0,0,2.52,1.7,34.38,34.38,0,0,0,3.88,1.64q3.75,1.38,6.82,2.82a23.18,23.18,0,0,1,5.28,3.35,13.05,13.05,0,0,1,4.69,10.44,14.09,14.09,0,0,1-1.06,5.67,12.87,12.87,0,0,1-3.08,4.35,15.49,15.49,0,0,1-4.82,3,23.1,23.1,0,0,1-6.29,1.47l0,7.13-6.13,0,0-7.08a26,26,0,0,1-6.2-1.36,16.26,16.26,0,0,1-5.32-3.06,14.78,14.78,0,0,1-3.73-5.08,17.86,17.86,0,0,1-1.43-7.37l11.14-.07a11,11,0,0,0,.73,4.24,7.19,7.19,0,0,0,1.93,2.71,6.75,6.75,0,0,0,2.72,1.41,12.12,12.12,0,0,0,3.11.4,9.83,9.83,0,0,0,3.18-.49,6.49,6.49,0,0,0,2.28-1.3,5.38,5.38,0,0,0,1.38-2A6.37,6.37,0,0,0,1174.35,931.07Z"/><rect class="cls-10" x="944.48" y="920.52" width="286" height="203.11" rx="18.07"/><path class="cls-9" d="M1239,1049.83h-88.75a27.75,27.75,0,0,1-27.75-27.75h0a27.74,27.74,0,0,1,27.75-27.75H1239Z"/><circle class="cls-16" cx="1150.23" cy="1022.08" r="21.75"/><circle class="cls-6" cx="1979.61" cy="840.57" r="141.43" transform="translate(-36.06 90.57) rotate(-2.6)"/><path class="cls-1" d="M1897.22,850.32l46.19,46.19a13.47,13.47,0,0,0,9.52,3.94h6.73a13.5,13.5,0,0,0,9.53-3.94L2062,803.68a13.47,13.47,0,0,0-9.53-23h-4.36a13.49,13.49,0,0,0-9.42,3.84l-76,74.31a13.48,13.48,0,0,1-18.94-.1l-27.46-27.47a13.5,13.5,0,0,0-9.67-3.95h0A13.47,13.47,0,0,0,1897.22,850.32Z"/><path class="cls-6" d="M699.94,797.65c-1.91.25-3.79.48-5.66.71a3.9,3.9,0,0,1-1-7.74h0c3.36-.41,6.78-.84,10.26-1.31h0a3.9,3.9,0,0,1,1,7.73Zm15-2a3.9,3.9,0,0,1-1-7.73c3.37-.48,6.78-1,10.25-1.53a3.9,3.9,0,0,1,1.19,7.7q-5.23.81-10.33,1.55ZM684,799.53h-.09c-3.53.38-7,.72-10.4,1a3.9,3.9,0,1,1-.7-7.76c3.33-.3,6.79-.64,10.28-1a3.9,3.9,0,0,1,.91,7.74Zm51.48-7.1a3.9,3.9,0,0,1-1.12-7.71q5.05-.83,10.23-1.71a3.9,3.9,0,1,1,1.32,7.68c-3.47.59-6.9,1.17-10.29,1.72Zm-72.18,9-.23,0c-3.58.25-7.11.46-10.46.61a3.89,3.89,0,1,1-.36-7.78c3.29-.15,6.75-.36,10.28-.6a3.9,3.9,0,0,1,.77,7.75ZM756,788.92a3.9,3.9,0,0,1-1.17-7.7q5.06-.9,10.2-1.86a3.9,3.9,0,0,1,1.42,7.66q-5.17,1-10.25,1.87ZM642.53,802.31l-.43,0c-3.65.06-7.2,0-10.54,0a3.9,3.9,0,1,1,.17-7.79c3.24.07,6.69.07,10.24,0a3.9,3.9,0,0,1,.56,7.76Zm133.89-17.18a3.9,3.9,0,0,1-1.22-7.69q5.06-1,10.18-2a3.9,3.9,0,0,1,1.51,7.65q-5.14,1-10.22,2Zm20.41-4a3.89,3.89,0,0,1-1.27-7.68l10.17-2.09a3.9,3.9,0,1,1,1.58,7.63l-10.2,2.1Zm20.36-4.23a3.89,3.89,0,0,1-1.3-7.67L826,767a3.9,3.9,0,0,1,1.65,7.62l-10.18,2.18ZM621.77,801.81a4.15,4.15,0,0,1-.79,0c-3.77-.27-7.34-.67-10.62-1.16a3.89,3.89,0,1,1,1.16-7.7c3.08.46,6.46.83,10,1.09a3.9,3.9,0,0,1,.22,7.75Zm215.74-29.34a3.9,3.9,0,0,1-1.33-7.67q5-1.11,10.14-2.26a3.9,3.9,0,0,1,1.71,7.61l-10.17,2.26C837.75,772.44,837.63,772.45,837.51,772.47Zm20.29-4.56a3.89,3.89,0,0,1-1.36-7.66q5-1.15,10.12-2.33a3.9,3.9,0,1,1,1.76,7.59l-10.14,2.34A2.5,2.5,0,0,1,857.8,767.91Zm20.26-4.69a3.9,3.9,0,0,1-1.38-7.66l10.1-2.39a3.9,3.9,0,1,1,1.81,7.58l-10.13,2.4ZM601.27,798.59a4,4,0,0,1-1.53-.1,51.9,51.9,0,0,1-10.47-4,3.9,3.9,0,0,1,3.65-6.89A43.29,43.29,0,0,0,601.8,791a3.89,3.89,0,0,1-.53,7.62Zm297-40.19a3.9,3.9,0,0,1-1.41-7.65L907,748.3a3.9,3.9,0,1,1,1.84,7.57l-10.11,2.45A3.1,3.1,0,0,1,898.29,758.4Zm20.2-4.93a3.9,3.9,0,0,1-1.43-7.65l10.09-2.5a3.9,3.9,0,1,1,1.88,7.56l-10.1,2.51Zm20.17-5a3.9,3.9,0,0,1-1.44-7.65l10.07-2.54a3.9,3.9,0,1,1,1.92,7.55l-10.09,2.55A3.4,3.4,0,0,1,938.66,748.44Zm20.16-5.13a3.9,3.9,0,0,1-1.46-7.64l10.06-2.59a3.9,3.9,0,0,1,2,7.55l-10.08,2.59Zm20.09-5.2a3.89,3.89,0,0,1-1.47-7.63l10-2.63a3.89,3.89,0,1,1,2,7.53L979.41,738A3,3,0,0,1,978.91,738.11ZM583.66,788.36a3.92,3.92,0,0,1-3.65-1.58c-.23-.32-.45-.64-.65-1a52.65,52.65,0,0,1-4.68-9,3.9,3.9,0,1,1,7.25-2.86,45.76,45.76,0,0,0,4,7.71c.13.2.26.39.4.58a3.89,3.89,0,0,1-.87,5.44A3.82,3.82,0,0,1,583.66,788.36ZM999,732.83a3.9,3.9,0,0,1-1.49-7.64l10-2.67a3.9,3.9,0,0,1,2,7.53l-10.06,2.68Zm20.12-5.38a3.9,3.9,0,0,1-1.5-7.63l10.06-2.71a3.9,3.9,0,0,1,2,7.52l-10.08,2.72A3.18,3.18,0,0,1,1019.12,727.45Zm20.1-5.44a3.9,3.9,0,0,1-1.51-7.63l10-2.74a3.9,3.9,0,1,1,2.06,7.52l-10,2.74A3.45,3.45,0,0,1,1039.22,722Zm20.06-5.5a3.9,3.9,0,0,1-1.53-7.62l10-2.77a3.89,3.89,0,1,1,2.09,7.5l-10,2.78A5.17,5.17,0,0,1,1059.28,716.51Zm20-5.56a3.9,3.9,0,0,1-1.54-7.62l10-2.8a3.89,3.89,0,1,1,2.1,7.5l-10,2.8A5.59,5.59,0,0,1,1079.31,711Zm20-5.62a3.9,3.9,0,0,1-1.55-7.62l10-2.83a3.9,3.9,0,0,1,2.13,7.5l-10,2.83Zm20-5.68a3.9,3.9,0,0,1-1.56-7.61l10-2.86a3.89,3.89,0,1,1,2.14,7.49l-10,2.86A3.73,3.73,0,0,1,1119.33,699.65Zm-543,69.49-.15,0a3.89,3.89,0,0,1-4.23-3.53,36.05,36.05,0,0,1,.78-11.43,3.89,3.89,0,0,1,7.59,1.75,28.26,28.26,0,0,0-.61,9A3.89,3.89,0,0,1,576.35,769.14Zm563-75.22a3.9,3.9,0,0,1-1.57-7.61l10-2.88a3.89,3.89,0,0,1,2.16,7.48l-10,2.89A4.12,4.12,0,0,1,1139.32,693.92Zm20-5.78a3.9,3.9,0,0,1-1.58-7.61l10-2.9a3.9,3.9,0,0,1,2.18,7.48l-10,2.91A3.86,3.86,0,0,1,1159.3,688.14Zm20-5.83a3.89,3.89,0,0,1-1.59-7.6l10-2.93a3.9,3.9,0,0,1,2.21,7.47l-10,2.94A3.46,3.46,0,0,1,1179.26,682.31Zm20-5.87a3.9,3.9,0,0,1-1.6-7.6l10-3a3.9,3.9,0,1,1,2.21,7.47q-4.95,1.49-10,3A4.42,4.42,0,0,1,1199.21,676.44Zm19.93-5.92a3.9,3.9,0,0,1-1.6-7.6l10-3a3.9,3.9,0,1,1,2.23,7.47l-10,3A4.7,4.7,0,0,1,1219.14,670.52Zm-638.4,78.85a3.9,3.9,0,0,1-3.91-5.73,56.47,56.47,0,0,1,6.31-9.13,3.9,3.9,0,0,1,6,5,48.94,48.94,0,0,0-5.44,7.85A3.88,3.88,0,0,1,580.74,749.37Zm658.33-84.81a3.9,3.9,0,0,1-1.62-7.6l10-3a3.9,3.9,0,0,1,2.25,7.46l-10,3A4.75,4.75,0,0,1,1239.07,664.56Zm19.91-6a3.9,3.9,0,0,1-1.62-7.6l10-3a3.89,3.89,0,1,1,2.26,7.45l-10,3A3.88,3.88,0,0,1,1259,658.55Zm19.9-6a3.9,3.9,0,0,1-1.63-7.59l9.94-3a3.9,3.9,0,1,1,2.28,7.45l-10,3A3.67,3.67,0,0,1,1278.88,652.5Zm19.89-6.09a3.9,3.9,0,0,1-1.64-7.59l9.94-3.06a3.9,3.9,0,1,1,2.29,7.45l-9.94,3.06A4,4,0,0,1,1298.77,646.41Zm-704.91,87a3.89,3.89,0,0,1-3.11-6.76c2.52-2.27,5.34-4.55,8.37-6.79a3.9,3.9,0,0,1,4.62,6.28c-2.83,2.08-5.44,4.2-7.77,6.3A3.9,3.9,0,0,1,593.86,733.45Zm724.78-93.17a3.9,3.9,0,0,1-1.64-7.59l9.93-3.08a3.9,3.9,0,0,1,2.32,7.44l-9.94,3.09A5,5,0,0,1,1318.64,640.28Zm19.87-6.17a3.9,3.9,0,0,1-1.65-7.59l9.93-3.1a3.9,3.9,0,0,1,2.33,7.44l-9.94,3.1A3.82,3.82,0,0,1,1338.51,634.11Zm19.86-6.21a3.9,3.9,0,0,1-1.66-7.59l9.93-3.12a3.89,3.89,0,0,1,2.34,7.43l-9.93,3.13A4.14,4.14,0,0,1,1358.37,627.9ZM610.53,721.07A3.9,3.9,0,0,1,608,713.9c2.87-1.8,5.95-3.61,9.16-5.39a3.9,3.9,0,0,1,3.77,6.82c-3.09,1.7-6,3.44-8.78,5.17A4,4,0,0,1,610.53,721.07Zm767.69-99.43a3.9,3.9,0,0,1-1.66-7.58l9.92-3.14a3.89,3.89,0,1,1,2.36,7.42l-9.93,3.15A4.26,4.26,0,0,1,1378.22,621.64Zm19.85-6.3a3.9,3.9,0,0,1-1.67-7.58l9.91-3.17a3.9,3.9,0,0,1,2.38,7.42q-4.71,1.51-9.93,3.17A3.44,3.44,0,0,1,1398.07,615.34ZM628.72,711a3.9,3.9,0,0,1-2.22-7.36c3-1.5,6.25-3,9.54-4.5a3.9,3.9,0,1,1,3.2,7.11c-3.21,1.44-6.33,2.91-9.28,4.38A4,4,0,0,1,628.72,711Zm789.2-102a3.89,3.89,0,0,1-1.69-7.57l9.93-3.2a3.9,3.9,0,0,1,2.39,7.42l-9.93,3.2A4.37,4.37,0,0,1,1417.92,609Zm19.87-6.42a3.9,3.9,0,0,1-1.7-7.57c6.13-2,9.4-3.07,9.4-3.07a3.9,3.9,0,0,1,2.44,7.4l-9.43,3.08A3.47,3.47,0,0,1,1437.79,602.56ZM647.7,702.41a3.9,3.9,0,0,1-2-7.47c3.14-1.29,6.43-2.6,9.77-3.88a3.9,3.9,0,1,1,2.78,7.28c-3.27,1.25-6.5,2.53-9.58,3.81A3.91,3.91,0,0,1,647.7,702.41ZM667.14,695a3.9,3.9,0,0,1-1.8-7.54c3.22-1.14,6.55-2.29,9.92-3.42a3.9,3.9,0,0,1,2.47,7.39c-3.32,1.11-6.61,2.24-9.77,3.37A4.08,4.08,0,0,1,667.14,695Zm19.76-6.6a3.9,3.9,0,0,1-1.66-7.58c3.26-1,6.63-2,10-3.06a3.9,3.9,0,0,1,2.21,7.48c-3.35,1-6.68,2-9.9,3A4,4,0,0,1,686.9,688.36Zm20-5.91a3.9,3.9,0,0,1-1.54-7.62c3.33-.93,6.73-1.85,10.11-2.74a3.89,3.89,0,0,1,2,7.53c-3.35.88-6.71,1.8-10,2.72A4,4,0,0,1,706.87,682.45ZM727,677.12a3.89,3.89,0,0,1-1.44-7.64c3.34-.84,6.77-1.67,10.17-2.48a3.9,3.9,0,1,1,1.8,7.58c-3.37.8-6.76,1.63-10.08,2.46Zm20.28-4.81a3.89,3.89,0,0,1-1.34-7.66c3.42-.77,6.86-1.52,10.25-2.23a3.9,3.9,0,0,1,1.6,7.63c-3.35.7-6.76,1.44-10.14,2.2A2.38,2.38,0,0,1,747.3,672.31Zm20.43-4.3a3.89,3.89,0,0,1-1.24-7.68c6.5-1.28,10.25-1.92,10.41-2a3.9,3.9,0,1,1,1.31,7.68s-3.82.65-10.22,1.91Z"/><polygon class="cls-3" points="1492.58 654.99 1628.35 553.28 1495.81 578.27 1509 599.51 1485.33 633.6 1492.58 654.99"/><polygon class="cls-6" points="1628.35 553.28 1478.54 601.03 1376.74 692.94 1628.35 553.28"/><polygon class="cls-6" points="1495.81 578.27 1628.35 553.28 1483.41 530.23 1495.81 578.27"/><rect class="cls-6" x="916.95" y="1247.71" width="361.05" height="88.65" rx="15.16"/><path class="cls-1" d="M980.26,1272a1.47,1.47,0,0,1,1.09.46,1.44,1.44,0,0,1,.46,1.08v4.07a1.44,1.44,0,0,1-.46,1.08,1.47,1.47,0,0,1-1.09.46H970v31.36a1.55,1.55,0,0,1-1.54,1.54h-4.63a1.57,1.57,0,0,1-1.55-1.54v-31.36h-10.3a1.55,1.55,0,0,1-1.54-1.54v-4.07a1.55,1.55,0,0,1,1.54-1.54Z"/><path class="cls-1" d="M1003.84,1272q7.15,0,10.87,3.32t3.72,9.21a12.73,12.73,0,0,1-1.92,7.12,11.32,11.32,0,0,1-5.63,4.38l7.89,14.13a1.36,1.36,0,0,1,.17.63,1.26,1.26,0,0,1-1.25,1.26h-4.87a2.33,2.33,0,0,1-1.69-.54,4.07,4.07,0,0,1-.77-1l-7.49-13.33h-7.62v13.33a1.55,1.55,0,0,1-1.54,1.54h-4.63a1.57,1.57,0,0,1-1.55-1.54v-37a1.57,1.57,0,0,1,1.55-1.54Zm-8.59,18h8.3a10.27,10.27,0,0,0,5.21-1.14c1.3-.76,1.94-2.21,1.94-4.35s-.64-3.57-1.94-4.29a10.62,10.62,0,0,0-5.21-1.09h-8.3Z"/><path class="cls-1" d="M1044.69,1272a1.8,1.8,0,0,1,1.38.49,4.22,4.22,0,0,1,.8,1.45l14,36.17a1.56,1.56,0,0,1,0,.4,1.55,1.55,0,0,1-1.54,1.54h-4.12a2.14,2.14,0,0,1-1.6-.48,2.79,2.79,0,0,1-.63-.95l-2.46-6.35H1032.5l-2.46,6.35a2.79,2.79,0,0,1-.63.95,2.14,2.14,0,0,1-1.6.48h-4.12a1.57,1.57,0,0,1-1.54-1.54,1.2,1.2,0,0,1,.06-.4l14-36.17a4.07,4.07,0,0,1,.81-1.45,1.76,1.76,0,0,1,1.37-.49Zm3.15,25.12-6.29-16.31-6.3,16.31Z"/><path class="cls-1" d="M1092.13,1312.06a2,2,0,0,1-1.49-.51,10.24,10.24,0,0,1-.74-.8l-16-23.81v23.58a1.55,1.55,0,0,1-1.54,1.54h-4.64a1.57,1.57,0,0,1-1.54-1.54v-37a1.57,1.57,0,0,1,1.54-1.54h4a2,2,0,0,1,1.49.51,10,10,0,0,1,.74.81l16,23.8v-23.58a1.44,1.44,0,0,1,.46-1.08,1.48,1.48,0,0,1,1.09-.46h4.63a1.57,1.57,0,0,1,1.55,1.54v37a1.57,1.57,0,0,1-1.55,1.54Z"/><path class="cls-1" d="M1120.34,1271.44a20.2,20.2,0,0,1,6.75,1A16.62,16.62,0,0,1,1132,1275a11.14,11.14,0,0,1,3,3.41A8.59,8.59,0,0,1,1136,1282a1.28,1.28,0,0,1-.42,1.12,1.64,1.64,0,0,1-1.12.43h-4a2.38,2.38,0,0,1-1.46-.37,3.78,3.78,0,0,1-.88-1,7.29,7.29,0,0,0-2.61-2.49,10.08,10.08,0,0,0-5.17-1.06,12.42,12.42,0,0,0-2.84.31,8.11,8.11,0,0,0-2.34.92,4.85,4.85,0,0,0-1.58,1.46,3.43,3.43,0,0,0-.57,1.94,3.79,3.79,0,0,0,.55,2.15,4.26,4.26,0,0,0,1.83,1.43,19,19,0,0,0,3.4,1.12q2.12.51,5.27,1.2a37.45,37.45,0,0,1,5.92,1.74,13.72,13.72,0,0,1,4.06,2.41,9,9,0,0,1,2.35,3.23,10.74,10.74,0,0,1,.77,4.18,10.09,10.09,0,0,1-1.15,4.77,11,11,0,0,1-3.26,3.78,16.44,16.44,0,0,1-5.2,2.49,24.39,24.39,0,0,1-6.93.91,23.65,23.65,0,0,1-6.12-.77,17.87,17.87,0,0,1-5.18-2.23,12.22,12.22,0,0,1-3.63-3.52,9.25,9.25,0,0,1-1.55-4.58,1.26,1.26,0,0,1,.43-1.11,1.64,1.64,0,0,1,1.12-.43h4a2.67,2.67,0,0,1,1.49.34,2.62,2.62,0,0,1,.86,1,11.44,11.44,0,0,0,1,1.49,5.22,5.22,0,0,0,1.55,1.32,9.55,9.55,0,0,0,2.43.94,14.85,14.85,0,0,0,3.63.37,19.94,19.94,0,0,0,3.32-.26,9.59,9.59,0,0,0,2.8-.85,6,6,0,0,0,2-1.49,3.29,3.29,0,0,0,.74-2.2,2.76,2.76,0,0,0-.8-2.06,6.27,6.27,0,0,0-2.43-1.38,33.78,33.78,0,0,0-4-1.08q-2.42-.53-5.55-1.32a29.79,29.79,0,0,1-5-1.63,11.81,11.81,0,0,1-3.55-2.32,8.7,8.7,0,0,1-2.09-3.23,13,13,0,0,1-.68-4.44,10.1,10.1,0,0,1,1.14-4.75,11.29,11.29,0,0,1,3.15-3.71,15.59,15.59,0,0,1,4.78-2.44A19.56,19.56,0,0,1,1120.34,1271.44Z"/><path class="cls-1" d="M1169.66,1272a1.55,1.55,0,0,1,1.54,1.54v4.07a1.55,1.55,0,0,1-1.54,1.54h-18.25v11.1h17.1a1.5,1.5,0,0,1,1.09.46,1.48,1.48,0,0,1,.46,1.09v4.06a1.55,1.55,0,0,1-1.55,1.54h-17.1v13.11a1.57,1.57,0,0,1-1.55,1.54h-4.63a1.47,1.47,0,0,1-1.09-.46,1.44,1.44,0,0,1-.46-1.08v-37a1.44,1.44,0,0,1,.46-1.08,1.47,1.47,0,0,1,1.09-.46Z"/><path class="cls-1" d="M1204.5,1304.91a1.57,1.57,0,0,1,1.55,1.55v4.06a1.44,1.44,0,0,1-.46,1.08,1.47,1.47,0,0,1-1.09.46h-25.11a1.57,1.57,0,0,1-1.55-1.54v-37a1.57,1.57,0,0,1,1.55-1.54h24.66a1.57,1.57,0,0,1,1.54,1.54v4.07a1.57,1.57,0,0,1-1.54,1.54h-18.49v9.1h17.23a1.55,1.55,0,0,1,1.54,1.54v4.07a1.55,1.55,0,0,1-1.54,1.54h-17.23v9.5Z"/><path class="cls-1" d="M1229.45,1272q7.15,0,10.87,3.32t3.72,9.21a12.81,12.81,0,0,1-1.91,7.12,11.3,11.3,0,0,1-5.64,4.38l7.9,14.13a1.49,1.49,0,0,1,.17.63,1.24,1.24,0,0,1-.37.89,1.22,1.22,0,0,1-.89.37h-4.86a2.3,2.3,0,0,1-1.69-.54,3.84,3.84,0,0,1-.77-1l-7.5-13.33h-7.61v13.33a1.44,1.44,0,0,1-.46,1.08,1.47,1.47,0,0,1-1.09.46h-4.63a1.57,1.57,0,0,1-1.55-1.54v-37a1.57,1.57,0,0,1,1.55-1.54Zm-8.58,18h8.3a10.23,10.23,0,0,0,5.2-1.14q2-1.14,2-4.35t-2-4.29a10.58,10.58,0,0,0-5.2-1.09h-8.3Z"/><path class="cls-17" d="M83.67,1529.57H2916.33a2.75,2.75,0,0,0,2.75-2.74h0a2.76,2.76,0,0,0-2.75-2.75H83.67a2.76,2.76,0,0,0-2.75,2.75h0A2.75,2.75,0,0,0,83.67,1529.57Z"/></svg>